<?xml version="1.0" standalone="no"?>
<!DOCTYPE svg PUBLIC "-//W3C//DTD SVG 20010904//EN"
 "http://www.w3.org/TR/2001/REC-SVG-20010904/DTD/svg10.dtd">
<svg version="1.0" xmlns="http://www.w3.org/2000/svg"
 width="863.000000pt" height="289.000000pt" viewBox="0 0 863.000000 289.000000"
 preserveAspectRatio="xMidYMid meet">
<metadata>
Created by potrace 1.16, written by Peter Selinger 2001-2019
</metadata>
<g transform="translate(0.000000,289.000000) scale(0.100000,-0.100000)"
fill="currentColor" stroke="none">
<path d="M2101 2771 c-6 -11 -11 -30 -11 -43 0 -24 -13 -50 -24 -49 -3 1 -10
1 -15 1 -5 0 -24 -35 -41 -77 -18 -43 -77 -177 -133 -298 -55 -121 -128 -283
-162 -360 -185 -413 -215 -476 -229 -491 -20 -19 -31 -63 -20 -74 11 -10 273
-130 285 -130 13 0 41 60 35 76 -3 8 26 85 65 171 39 87 98 219 131 293 33 74
90 203 127 285 155 343 211 471 211 483 0 7 -20 22 -45 34 -25 12 -45 25 -45
29 0 5 11 20 25 35 14 15 25 37 25 49 0 21 -22 33 -152 80 -11 4 -20 -1 -27
-14z"/>
<path d="M1155 2586 c-32 -32 -40 -69 -25 -107 22 -51 43 -59 162 -59 l108 0
0 -55 0 -55 -279 0 c-241 0 -280 2 -292 16 -41 49 -130 59 -178 18 -58 -48
-60 -122 -6 -180 28 -29 39 -34 78 -34 37 0 53 6 80 30 l35 30 281 0 281 0 0
-30 c0 -26 -7 -33 -50 -55 -132 -67 -256 -172 -320 -272 l-33 -53 -332 0
c-290 0 -334 2 -346 16 -35 42 -99 55 -149 29 -42 -22 -60 -53 -60 -106 0
-111 120 -163 201 -88 l31 29 300 0 c282 0 300 -1 293 -17 -36 -94 -51 -324
-28 -406 l11 -37 -136 0 c-132 0 -137 1 -163 26 -35 33 -95 42 -137 20 -71
-36 -83 -144 -23 -198 25 -23 41 -28 80 -28 41 0 54 5 81 30 l32 30 153 0 152
0 18 -41 c27 -59 50 -70 133 -68 39 1 76 5 82 9 8 5 2 22 -19 55 -82 129 -117
281 -100 431 10 94 21 129 68 219 71 138 217 256 376 304 38 12 73 27 77 34 9
14 11 548 2 571 -5 14 -33 16 -211 16 -202 0 -204 0 -228 -24z"/>
<path d="M2769 2227 c-94 -63 -141 -193 -143 -392 -1 -202 50 -362 136 -421
52 -36 128 -43 178 -16 61 33 101 116 86 177 -5 21 -12 25 -46 25 -44 0 -60
-18 -60 -67 0 -38 -22 -68 -44 -60 -14 6 -16 39 -16 331 0 178 3 331 6 340 16
42 53 -9 69 -97 8 -43 35 -70 67 -65 23 3 23 5 21 113 -3 148 -6 155 -46 155
-18 0 -38 -5 -44 -11 -8 -8 -17 -8 -31 0 -35 18 -96 13 -133 -12z"/>
<path d="M3235 2233 c-76 -40 -130 -117 -159 -230 -25 -94 -22 -306 5 -397 26
-87 71 -158 124 -194 35 -24 50 -27 117 -27 70 0 79 2 114 31 88 71 127 152
146 302 13 112 -2 270 -35 347 -30 71 -87 139 -137 165 -48 24 -132 26 -175 3z
m103 -65 c9 -9 12 -101 12 -354 0 -291 -2 -343 -15 -354 -12 -10 -18 -10 -30
0 -13 11 -15 63 -15 354 0 332 3 366 30 366 3 0 11 -5 18 -12z"/>
<path d="M4953 2229 c-53 -26 -88 -66 -124 -142 -38 -82 -53 -179 -46 -317 8
-179 53 -290 146 -355 38 -27 51 -30 114 -30 58 0 79 5 109 23 54 33 97 93
127 175 24 66 26 85 26 227 0 173 -11 226 -68 321 -46 77 -111 119 -186 119
-37 0 -70 -7 -98 -21z m117 -68 c6 -13 10 -141 10 -350 0 -286 -2 -332 -16
-345 -19 -20 -19 -20 -38 0 -14 13 -16 59 -16 346 0 294 2 333 17 350 21 23
30 23 43 -1z"/>
<path d="M6568 2217 c-88 -67 -128 -188 -128 -389 0 -187 35 -315 103 -386 45
-48 78 -62 140 -62 85 0 144 56 162 153 6 28 3 39 -14 56 -34 34 -91 20 -91
-22 0 -48 -20 -97 -40 -97 -19 0 -20 9 -20 329 0 319 2 361 21 361 13 0 35
-49 43 -95 11 -58 31 -85 65 -85 16 0 32 6 34 13 8 21 -5 231 -16 245 -12 15
-59 16 -74 1 -8 -8 -17 -8 -31 0 -11 6 -41 11 -66 11 -35 0 -54 -7 -88 -33z"/>
<path d="M7353 2232 c-54 -29 -90 -68 -122 -134 -41 -84 -55 -159 -54 -298 2
-291 124 -452 316 -416 19 4 56 23 82 43 52 39 90 110 116 213 18 72 18 278 0
350 -31 125 -92 214 -168 246 -44 19 -131 17 -170 -4z m115 -421 c-3 -329 -4
-346 -22 -349 -10 -2 -22 2 -27 10 -5 7 -9 162 -9 345 0 291 2 334 16 348 13
12 19 13 30 4 12 -10 14 -70 12 -358z"/>
<path d="M3626 2224 c-11 -28 -6 -51 14 -69 19 -17 20 -31 20 -339 0 -309 -1
-322 -20 -339 -21 -17 -26 -52 -12 -75 7 -9 41 -12 138 -10 l129 3 3 36 c2 23
-2 40 -12 49 -13 10 -16 37 -16 141 0 70 4 130 8 133 4 3 19 -1 33 -7 23 -12
24 -16 29 -158 7 -197 8 -199 135 -199 l95 0 0 39 c0 22 -4 43 -10 46 -5 3
-10 48 -10 98 0 114 -23 170 -84 203 l-38 22 39 21 c60 34 87 82 91 161 5 83
-8 124 -55 180 -62 72 -91 80 -294 80 -152 0 -178 -2 -183 -16z m292 -70 c21
-14 22 -22 22 -150 0 -131 -1 -136 -25 -160 -14 -14 -30 -22 -35 -19 -6 4 -10
74 -10 176 0 180 2 186 48 153z"/>
<path d="M4197 2234 c-14 -14 -7 -58 13 -79 19 -20 20 -40 26 -342 6 -321 5
-321 -16 -333 -17 -9 -20 -19 -18 -48 l3 -37 140 0 140 0 3 32 c2 24 -2 35
-17 45 -19 11 -21 23 -21 104 l0 91 53 7 c149 19 212 75 236 212 24 138 -20
261 -113 319 l-49 30 -186 3 c-103 2 -190 0 -194 -4z m295 -81 c16 -14 18 -34
18 -190 0 -181 -6 -213 -40 -213 -19 0 -20 8 -20 210 0 219 2 229 42 193z"/>
<path d="M5352 2228 c-19 -19 -14 -53 13 -76 l25 -22 0 -313 c0 -304 -1 -315
-20 -332 -15 -14 -20 -29 -18 -54 l3 -36 124 -3 c82 -2 128 1 137 9 18 15 18
53 -1 69 -12 10 -15 40 -15 150 l0 137 25 -5 c14 -2 28 -8 30 -13 3 -4 8 -70
11 -146 3 -76 10 -150 16 -166 13 -34 32 -39 133 -35 79 3 80 3 83 30 2 15 -3
37 -10 47 -10 13 -13 42 -12 86 5 119 -30 200 -99 230 l-29 12 39 20 c21 11
51 39 68 62 27 38 30 50 30 120 0 69 -4 83 -30 127 -21 33 -48 60 -85 82 l-54
32 -176 0 c-124 0 -180 -4 -188 -12z m292 -74 c13 -12 16 -41 16 -150 0 -141
-8 -174 -40 -174 -19 0 -20 8 -20 170 0 141 2 170 14 170 8 0 22 -7 30 -16z"/>
<path d="M6017 2234 c-13 -13 -7 -67 9 -85 17 -19 18 -12 -46 -399 -11 -69
-24 -153 -29 -187 -5 -34 -17 -72 -25 -85 -9 -12 -16 -37 -16 -55 l0 -33 84 0
c74 0 85 2 91 19 7 23 -4 52 -28 72 -15 12 -18 22 -12 47 6 27 11 32 38 33 37
1 81 -2 85 -6 11 -10 2 -68 -11 -83 -10 -10 -17 -33 -17 -50 l0 -31 121 -3
c66 -2 129 0 140 4 25 10 25 51 -1 86 -14 19 -25 61 -35 132 -27 192 -36 255
-45 300 -5 25 -14 86 -20 135 -7 50 -17 113 -24 140 l-11 50 -121 3 c-66 1
-123 -1 -127 -4z"/>
<path d="M6857 2234 c-16 -17 -6 -68 18 -90 l25 -23 0 -310 0 -311 -25 -16
c-20 -13 -25 -25 -25 -55 l0 -39 150 0 c123 0 150 3 150 14 0 8 3 21 6 30 3 9
-4 25 -20 39 l-26 24 0 323 c0 314 0 322 20 327 21 6 34 38 28 70 -3 16 -17
18 -149 21 -80 1 -148 -1 -152 -4z"/>
<path d="M7747 2234 c-14 -15 -6 -61 13 -79 19 -17 20 -31 20 -341 0 -316 0
-324 -21 -334 -16 -9 -19 -19 -17 -48 l3 -37 93 -3 92 -3 0 37 c0 27 -7 41
-25 56 -25 19 -25 20 -25 181 l1 162 60 -140 c34 -77 76 -174 93 -215 l33 -75
54 0 54 0 1 368 c2 366 2 369 24 389 15 14 20 27 16 42 -3 11 -6 27 -6 34 0
10 -22 12 -92 10 l-93 -3 -3 -27 c-2 -20 4 -35 22 -51 25 -23 26 -29 29 -158
2 -120 1 -130 -11 -99 -7 19 -41 103 -75 185 l-63 150 -85 3 c-47 1 -88 0 -92
-4z"/>
<path d="M2112 2014 l-43 -86 64 -67 c98 -101 177 -232 207 -341 19 -68 15
-214 -8 -287 -52 -163 -183 -319 -332 -391 -70 -34 -101 -43 -176 -51 -173
-18 -339 23 -462 116 -20 15 -37 22 -43 16 -19 -19 -80 -157 -77 -176 4 -29
138 -99 253 -132 164 -47 344 -44 512 10 l73 23 0 -59 0 -59 -482 -2 -483 -3
-3 -112 c-2 -86 0 -113 10 -114 7 -1 343 -2 745 -3 l733 -1 0 113 0 112 -115
0 -115 0 0 175 0 174 44 63 c86 124 130 237 147 381 10 79 9 109 -4 190 -29
167 -78 274 -189 413 -56 70 -183 184 -204 184 -5 0 -29 -39 -52 -86z"/>
<path d="M4507 1290 c-61 -38 -99 -92 -128 -182 -21 -64 -24 -92 -24 -223 0
-127 3 -161 22 -221 57 -179 191 -257 327 -190 124 61 185 222 173 455 -8 158
-40 248 -112 324 -71 75 -175 90 -258 37z m136 -130 c4 -47 6 -203 5 -347 -3
-225 -5 -265 -19 -278 -15 -15 -17 -15 -33 0 -14 15 -16 54 -16 346 0 337 4
374 38 367 14 -3 19 -20 25 -88z"/>
<path d="M6105 1310 l-130 -5 -3 -32 c-2 -24 2 -35 17 -45 21 -13 21 -20 21
-340 0 -318 -1 -328 -21 -347 -14 -13 -19 -28 -17 -47 l3 -29 189 -3 c114 -1
193 1 199 7 12 12 38 178 30 197 -7 18 -67 18 -82 0 -6 -7 -18 -38 -27 -67 -9
-30 -21 -57 -28 -61 -35 -23 -36 -15 -36 325 0 182 4 337 8 343 4 6 15 13 25
17 12 4 17 17 17 41 0 24 -6 38 -17 43 -10 4 -76 6 -148 3z"/>
<path d="M6926 1312 c-35 -7 -32 -86 4 -95 19 -5 20 -15 20 -321 0 -303 -1
-317 -20 -336 -52 -52 -56 -38 -114 335 -8 55 -25 163 -37 240 -12 77 -26 148
-31 158 -8 16 -22 17 -131 15 l-122 -3 -3 -33 c-2 -21 3 -41 13 -52 16 -17 15
-33 -19 -237 -19 -120 -40 -256 -46 -303 -6 -47 -19 -103 -30 -125 -10 -22
-21 -53 -24 -68 l-7 -28 93 3 93 3 3 31 c2 20 -4 36 -18 49 -20 19 -26 60 -11
83 5 9 25 12 57 10 l49 -3 3 -38 c2 -26 -2 -45 -13 -57 -10 -11 -15 -30 -13
-47 l3 -28 300 -3 c336 -2 384 3 448 52 62 47 89 117 84 223 -4 95 -29 145
-91 178 -20 11 -36 22 -36 26 0 4 16 17 36 30 70 47 96 157 55 237 -43 84 -93
101 -312 104 -91 2 -174 2 -183 0z m288 -428 c3 -9 6 -82 6 -163 0 -151 -5
-171 -42 -184 -17 -6 -18 7 -18 178 l0 185 24 0 c13 0 27 -7 30 -16z"/>
<path d="M3190 1270 c0 -29 5 -42 20 -50 19 -10 20 -21 20 -339 0 -324 0 -329
-21 -334 -17 -5 -20 -12 -17 -44 l3 -38 145 0 145 0 3 31 c2 24 -3 35 -22 48
-25 16 -26 21 -26 111 l0 95 51 0 c77 0 129 19 176 66 66 66 90 192 59 308
-21 78 -60 126 -128 160 -50 25 -58 26 -230 26 l-178 0 0 -40z m294 -46 c13
-12 16 -44 18 -167 2 -221 -1 -237 -43 -237 -18 0 -19 11 -19 210 0 175 2 210
14 210 8 0 22 -7 30 -16z"/>
<path d="M3766 1286 c-8 -31 1 -54 25 -67 18 -9 19 -26 19 -323 0 -301 -1
-314 -21 -340 -13 -17 -19 -37 -17 -58 l3 -33 128 -3 127 -3 10 27 c8 20 7 32
-5 50 -12 18 -15 54 -15 159 0 141 3 151 43 121 14 -11 17 -31 17 -133 0 -141
5 -174 32 -203 17 -19 29 -20 111 -18 l92 3 3 27 c2 15 -4 38 -12 50 -12 16
-16 47 -16 110 0 121 -24 173 -94 203 l-30 13 41 21 c71 36 95 84 94 188 0 79
-27 140 -77 178 -65 50 -90 55 -278 55 l-174 0 -6 -24z m296 -63 c16 -14 18
-33 18 -150 0 -140 -8 -173 -40 -173 -19 0 -20 8 -20 170 0 177 3 188 42 153z"/>
<path d="M4920 1271 c0 -22 6 -44 15 -51 23 -19 22 -645 -1 -678 -8 -12 -14
-35 -12 -50 3 -27 4 -27 80 -30 76 -3 78 -2 84 23 5 19 0 35 -15 55 -20 27
-21 41 -21 207 l1 178 24 -90 c14 -49 30 -111 36 -137 10 -47 12 -48 49 -48
l38 0 35 138 35 137 1 -180 c1 -169 0 -182 -19 -198 -20 -17 -25 -42 -14 -71
9 -24 269 -24 278 0 11 28 6 51 -14 69 -19 17 -20 31 -20 344 0 319 0 326 21
339 15 10 19 21 17 45 l-3 32 -112 3 -111 3 -16 -53 c-8 -29 -25 -96 -38 -148
-20 -83 -23 -91 -30 -65 -4 17 -22 83 -39 148 l-32 117 -109 0 -108 0 0 -39z"/>
<path d="M5530 1275 c0 -24 6 -39 20 -47 19 -12 20 -24 20 -340 0 -320 0 -328
-21 -338 -16 -9 -19 -19 -17 -48 l3 -37 194 0 194 0 13 52 c7 28 15 76 16 105
3 44 0 53 -15 56 -45 9 -65 -6 -83 -64 -18 -59 -36 -84 -60 -84 -12 0 -14 30
-14 175 l0 175 24 0 c20 0 26 -7 33 -37 8 -35 12 -38 46 -41 l37 -3 0 116 0
116 -37 -3 c-34 -3 -38 -6 -46 -40 -7 -31 -13 -38 -33 -38 l-24 0 0 145 c0
139 1 145 20 145 16 0 28 -16 50 -65 27 -60 32 -65 60 -65 40 0 45 17 30 93
-22 117 -2 107 -220 107 l-190 0 0 -35z"/>
<path d="M1190 1121 c-18 -35 -11 -55 23 -71 17 -7 79 -35 137 -60 58 -26 170
-75 249 -110 137 -61 144 -63 157 -45 29 39 18 54 -68 94 -244 113 -465 211
-476 211 -6 0 -16 -9 -22 -19z"/>
</g>
</svg>
